# xmcd CD database file
#
# Track frame offsets:
#	150
#	9085
#	11110
#	31537
#	59675
#	80437
#	82035
#	102135
#	105185
#	127682
#	156737
#	184412
#	190027
#	217730
#	231300
#	253145
#
# Disc length: 3497 seconds
#
# Revision: 0
# Processed by: cddbd v1.5.2PL0 Copyright (c) Steve Scherf et al.
# Submitted via: CDex 1.70beta2
#
DISCID=c30da710
DTITLE=Charnett Moffett - Rhythm And Blood
DYEAR=1900
DGENRE=Jazz
TTITLE0=Funky Funk
TTITLE1=You Look So Good In Blue
TTITLE2=You and I
TTITLE3=Babe I'm In Love With You
TTITLE4=Work Your Body
TTITLE5=Cotton
TTITLE6=Unity Rap
TTITLE7=Man Kind
TTITLE8=It's Like That
TTITLE9=Get On Home
TTITLE10=Breathe Again
TTITLE11=The Time
TTITLE12=Soothing The Soul
TTITLE13=Star Spangled Banner
TTITLE14=Orange Snow
TTITLE15=Over Sun
EXTD=
EXTT0=
EXTT1=
EXTT2=
EXTT3=
EXTT4=
EXTT5=
EXTT6=
EXTT7=
EXTT8=
EXTT9=
EXTT10=
EXTT11=
EXTT12=
EXTT13=
EXTT14=
EXTT15=
PLAYORDER=
